<svg width="67" height="77" viewBox="0 0 67 77" fill="none" xmlns="http://www.w3.org/2000/svg">
<path d="M48.5 67C53.1944 67 57 63.1944 57 58.5C57 53.8056 53.1944 50 48.5 50C43.8056 50 40 53.8056 40 58.5C40 63.1944 43.8056 67 48.5 67Z" fill="#F9C859"/>
<path fill-rule="evenodd" clip-rule="evenodd" d="M35.0037 26.0391H18V23.0391H35.0037V26.0391Z" fill="black"/>
<path fill-rule="evenodd" clip-rule="evenodd" d="M48.0129 33.0078H18V30.0078H48.0129V33.0078Z" fill="black"/>
<path fill-rule="evenodd" clip-rule="evenodd" d="M48.0156 40H18V37H48.0156V40Z" fill="black"/>
<path fill-rule="evenodd" clip-rule="evenodd" d="M36 47.0156H18V44.0156H36V47.0156Z" fill="black"/>
<path fill-rule="evenodd" clip-rule="evenodd" d="M27 54.0117L18 54.0117L18 51.0117L27 51.0117L27 54.0117Z" fill="black"/>
<path fill-rule="evenodd" clip-rule="evenodd" d="M5.51283 6.5L5.51374 9.5L3.02391 9.50076L3.03383 73.0263H6.6971V76.0263H0.0342956L0.0234375 6.50167L5.51283 6.5Z" fill="black"/>
<path fill-rule="evenodd" clip-rule="evenodd" d="M29.3365 65.9336H18V62.9336H29.3365V65.9336Z" fill="black"/>
<path fill-rule="evenodd" clip-rule="evenodd" d="M6.00781 0H51.6063L66.0078 16.0378V76.0434H6.00781V0ZM9.00781 3V73.0434H63.0078V17.1871L50.2682 3H9.00781Z" fill="black"/>
<path fill-rule="evenodd" clip-rule="evenodd" d="M46.9844 2.10938H49.9844V16.9843H63.5997V19.9843H46.9844V2.10938Z" fill="black"/>
<path fill-rule="evenodd" clip-rule="evenodd" d="M53.5945 57.0471L48.1377 62.5038L44.1875 58.5545L46.3086 56.4329L48.1375 58.2614L51.4731 54.9258L53.5945 57.0471Z" fill="black"/>
</svg>
