<svg width="20" height="19" viewBox="0 0 20 19" xmlns="http://www.w3.org/2000/svg">
<mask id="path-1-outside-1_602_1063" maskUnits="userSpaceOnUse" x="0" y="-0.25" width="20" height="20">
<rect fill="white" y="-0.25" width="20" height="20"/>
<path fill-rule="evenodd" clip-rule="evenodd" d="M13.6 0.75H6.4C3.41766 0.75 1 3.1676 1 6.15002V13.35C1 16.3324 3.41766 18.75 6.4 18.75H13.6C16.5823 18.75 19 16.3324 19 13.35V6.15002C19 3.1676 16.5823 0.75 13.6 0.75ZM2.8 6.14978C2.8 4.16162 4.41178 2.5498 6.4 2.5498H13.6C15.5882 2.5498 17.2 4.16162 17.2 6.14978V13.3499C17.2 15.338 15.5882 16.9498 13.6 16.9498H6.4C4.41178 16.9498 2.8 15.338 2.8 13.3499V6.14978ZM10 14.25C7.51472 14.25 5.5 12.2352 5.5 9.75C5.5 7.26477 7.51472 5.25 10 5.25C12.4853 5.25 14.5 7.26477 14.5 9.75C14.5 12.2352 12.4853 14.25 10 14.25ZM10 12.4498C11.4912 12.4498 12.7 11.241 12.7 9.74976C12.7 8.25867 11.4912 7.0498 10 7.0498C8.50883 7.0498 7.3 8.25867 7.3 9.74976C7.3 11.241 8.50883 12.4498 10 12.4498ZM15.4 5.24963C15.4 5.7467 14.9971 6.14966 14.5 6.14966C14.0029 6.14966 13.6 5.7467 13.6 5.24963C13.6 4.75256 14.0029 4.34961 14.5 4.34961C14.9971 4.34961 15.4 4.75256 15.4 5.24963Z"/>
</mask>
<path fill-rule="evenodd" clip-rule="evenodd" d="M13.6 0.75H6.4C3.41766 0.75 1 3.1676 1 6.15002V13.35C1 16.3324 3.41766 18.75 6.4 18.75H13.6C16.5823 18.75 19 16.3324 19 13.35V6.15002C19 3.1676 16.5823 0.75 13.6 0.75ZM2.8 6.14978C2.8 4.16162 4.41178 2.5498 6.4 2.5498H13.6C15.5882 2.5498 17.2 4.16162 17.2 6.14978V13.3499C17.2 15.338 15.5882 16.9498 13.6 16.9498H6.4C4.41178 16.9498 2.8 15.338 2.8 13.3499V6.14978ZM10 14.25C7.51472 14.25 5.5 12.2352 5.5 9.75C5.5 7.26477 7.51472 5.25 10 5.25C12.4853 5.25 14.5 7.26477 14.5 9.75C14.5 12.2352 12.4853 14.25 10 14.25ZM10 12.4498C11.4912 12.4498 12.7 11.241 12.7 9.74976C12.7 8.25867 11.4912 7.0498 10 7.0498C8.50883 7.0498 7.3 8.25867 7.3 9.74976C7.3 11.241 8.50883 12.4498 10 12.4498ZM15.4 5.24963C15.4 5.7467 14.9971 6.14966 14.5 6.14966C14.0029 6.14966 13.6 5.7467 13.6 5.24963C13.6 4.75256 14.0029 4.34961 14.5 4.34961C14.9971 4.34961 15.4 4.75256 15.4 5.24963Z"/>
<path d="M6.4 0.95H13.6V0.55H6.4V0.95ZM1.2 6.15002C1.2 3.27806 3.52812 0.95 6.4 0.95V0.55C3.30721 0.55 0.8 3.05714 0.8 6.15002H1.2ZM1.2 13.35V6.15002H0.8V13.35H1.2ZM6.4 18.55C3.52812 18.55 1.2 16.2219 1.2 13.35H0.8C0.8 16.4429 3.30721 18.95 6.4 18.95V18.55ZM13.6 18.55H6.4V18.95H13.6V18.55ZM18.8 13.35C18.8 16.2219 16.4719 18.55 13.6 18.55V18.95C16.6928 18.95 19.2 16.4429 19.2 13.35H18.8ZM18.8 6.15002V13.35H19.2V6.15002H18.8ZM13.6 0.95C16.4719 0.95 18.8 3.27806 18.8 6.15002H19.2C19.2 3.05714 16.6928 0.55 13.6 0.55V0.95ZM6.4 2.3498C4.30132 2.3498 2.6 4.05116 2.6 6.14978H3C3 4.27208 4.52224 2.7498 6.4 2.7498V2.3498ZM13.6 2.3498H6.4V2.7498H13.6V2.3498ZM17.4 6.14978C17.4 4.05116 15.6987 2.3498 13.6 2.3498V2.7498C15.4778 2.7498 17 4.27208 17 6.14978H17.4ZM17.4 13.3499V6.14978H17V13.3499H17.4ZM13.6 17.1498C15.6987 17.1498 17.4 15.4485 17.4 13.3499H17C17 15.2276 15.4778 16.7498 13.6 16.7498V17.1498ZM6.4 17.1498H13.6V16.7498H6.4V17.1498ZM2.6 13.3499C2.6 15.4485 4.30132 17.1498 6.4 17.1498V16.7498C4.52224 16.7498 3 15.2276 3 13.3499H2.6ZM2.6 6.14978V13.3499H3V6.14978H2.6ZM5.3 9.75C5.3 12.3457 7.40426 14.45 10 14.45V14.05C7.62518 14.05 5.7 12.1248 5.7 9.75H5.3ZM10 5.05C7.40426 5.05 5.3 7.15431 5.3 9.75H5.7C5.7 7.37523 7.62518 5.45 10 5.45V5.05ZM14.7 9.75C14.7 7.15431 12.5957 5.05 10 5.05V5.45C12.3748 5.45 14.3 7.37523 14.3 9.75H14.7ZM10 14.45C12.5957 14.45 14.7 12.3457 14.7 9.75H14.3C14.3 12.1248 12.3748 14.05 10 14.05V14.45ZM12.5 9.74976C12.5 11.1305 11.3807 12.2498 10 12.2498V12.6498C11.6016 12.6498 12.9 11.3514 12.9 9.74976H12.5ZM10 7.2498C11.3807 7.2498 12.5 8.36912 12.5 9.74976H12.9C12.9 8.14821 11.6016 6.8498 10 6.8498V7.2498ZM7.5 9.74976C7.5 8.36912 8.61929 7.2498 10 7.2498V6.8498C8.39838 6.8498 7.1 8.14821 7.1 9.74976H7.5ZM10 12.2498C8.6193 12.2498 7.5 11.1305 7.5 9.74976H7.1C7.1 11.3514 8.39837 12.6498 10 12.6498V12.2498ZM14.5 6.34966C15.1075 6.34966 15.6 5.85716 15.6 5.24963H15.2C15.2 5.63625 14.8866 5.94966 14.5 5.94966V6.34966ZM13.4 5.24963C13.4 5.85716 13.8925 6.34966 14.5 6.34966V5.94966C14.1134 5.94966 13.8 5.63625 13.8 5.24963H13.4ZM14.5 4.14961C13.8925 4.14961 13.4 4.64211 13.4 5.24963H13.8C13.8 4.86302 14.1134 4.54961 14.5 4.54961V4.14961ZM15.6 5.24963C15.6 4.64211 15.1075 4.14961 14.5 4.14961V4.54961C14.8866 4.54961 15.2 4.86302 15.2 5.24963H15.6Z" mask="url(#path-1-outside-1_602_1063)"/>
</svg>
