<svg width="14" height="11" viewBox="0 0 14 11" fill="none" xmlns="http://www.w3.org/2000/svg">
<path d="M10.3536 0.646446C10.1583 0.451184 9.84171 0.451184 9.64645 0.646446L6.46447 3.82843C6.2692 4.02369 6.2692 4.34027 6.46447 4.53553C6.65973 4.7308 6.97631 4.7308 7.17157 4.53553L10 1.70711L12.8284 4.53553C13.0237 4.7308 13.3403 4.7308 13.5355 4.53553C13.7308 4.34027 13.7308 4.02369 13.5355 3.82843L10.3536 0.646446ZM10.5 10L10.5 1L9.5 1L9.5 10L10.5 10Z" fill="#111111"/>
<path d="M4.35355 10.3536C4.15829 10.5488 3.84171 10.5488 3.64645 10.3536L0.464466 7.17157C0.269204 6.97631 0.269204 6.65973 0.464466 6.46447C0.659728 6.2692 0.97631 6.2692 1.17157 6.46447L4 9.29289L6.82843 6.46447C7.02369 6.2692 7.34027 6.2692 7.53553 6.46447C7.7308 6.65973 7.7308 6.97631 7.53553 7.17157L4.35355 10.3536ZM4.5 1L4.5 10L3.5 10L3.5 1L4.5 1Z" fill="#111111"/>
</svg>
