<svg width="15" height="17" viewBox="0 0 15 17" xmlns="http://www.w3.org/2000/svg">
<mask id="path-1-outside-1_602_1060" maskUnits="userSpaceOnUse" x="0" y="0" width="15" height="17">
<rect fill="white" width="15" height="17"/>
<path fill-rule="evenodd" clip-rule="evenodd" d="M14.5173 7.34141V4.7104C13.5826 4.60669 12.7072 4.20346 12.0293 3.56117C11.3104 2.88008 10.8591 1.97352 10.7544 1H8.46343L8.43949 11.9208C8.43949 13.2606 7.22959 14.3163 5.85955 14.3163C5.20176 14.3163 4.5709 14.0607 4.10577 13.6058C3.64065 13.1509 3.37934 12.534 3.37934 11.8907C3.37934 11.2473 3.64065 10.6304 4.10577 10.1755C4.5709 9.72061 5.20176 9.46506 5.85955 9.46506C5.93583 9.46506 6.00959 9.47492 6.0834 9.48479C6.10886 9.4882 6.13431 9.4916 6.15989 9.4946V7.15261C6.1362 7.15115 6.11254 7.14954 6.08888 7.14792C6.01292 7.14274 5.93689 7.13756 5.85955 7.13756C4.89842 7.13756 3.95888 7.41629 3.15973 7.93851C2.36058 8.46072 1.73772 9.20297 1.36991 10.0714C1.00211 10.9398 0.90587 11.8954 1.09338 12.8173C1.28088 13.7392 1.74371 14.586 2.42333 15.2507C3.10295 15.9153 3.96884 16.3679 4.9115 16.5513C5.85416 16.7347 6.83125 16.6406 7.71921 16.2809C8.60718 15.9212 9.36614 15.312 9.90011 14.5305C10.4341 13.7489 10.7191 12.8301 10.7191 11.8901V5.45993C11.1075 6.04003 11.6375 6.51642 12.2612 6.84609C12.8849 7.17576 13.5828 7.34834 14.2918 7.34824C14.367 7.34791 14.4422 7.34563 14.5173 7.34141Z"/>
</mask>
<path fill-rule="evenodd" clip-rule="evenodd" d="M14.5173 7.34141V4.7104C13.5826 4.60669 12.7072 4.20346 12.0293 3.56117C11.3104 2.88008 10.8591 1.97352 10.7544 1H8.46343L8.43949 11.9208C8.43949 13.2606 7.22959 14.3163 5.85955 14.3163C5.20176 14.3163 4.5709 14.0607 4.10577 13.6058C3.64065 13.1509 3.37934 12.534 3.37934 11.8907C3.37934 11.2473 3.64065 10.6304 4.10577 10.1755C4.5709 9.72061 5.20176 9.46506 5.85955 9.46506C5.93583 9.46506 6.00959 9.47492 6.0834 9.48479C6.10886 9.4882 6.13431 9.4916 6.15989 9.4946V7.15261C6.1362 7.15115 6.11254 7.14954 6.08888 7.14792C6.01292 7.14274 5.93689 7.13756 5.85955 7.13756C4.89842 7.13756 3.95888 7.41629 3.15973 7.93851C2.36058 8.46072 1.73772 9.20297 1.36991 10.0714C1.00211 10.9398 0.90587 11.8954 1.09338 12.8173C1.28088 13.7392 1.74371 14.586 2.42333 15.2507C3.10295 15.9153 3.96884 16.3679 4.9115 16.5513C5.85416 16.7347 6.83125 16.6406 7.71921 16.2809C8.60718 15.9212 9.36614 15.312 9.90011 14.5305C10.4341 13.7489 10.7191 12.8301 10.7191 11.8901V5.45993C11.1075 6.04003 11.6375 6.51642 12.2612 6.84609C12.8849 7.17576 13.5828 7.34834 14.2918 7.34824C14.367 7.34791 14.4422 7.34563 14.5173 7.34141Z"/>
<path d="M14.5173 4.7104H14.7173V4.53136L14.5394 4.51162L14.5173 4.7104ZM14.5173 7.34141L14.5285 7.54109L14.7173 7.53048V7.34141H14.5173ZM12.0293 3.56117L11.8917 3.70636L12.0293 3.56117ZM10.7544 1L10.9533 0.978619L10.9341 0.8H10.7544V1ZM8.46343 1V0.8H8.26386L8.26343 0.999562L8.46343 1ZM8.43949 11.9208L8.23949 11.9203V11.9208H8.43949ZM6.0834 9.48479L6.0569 9.68303H6.0569L6.0834 9.48479ZM6.15989 9.4946L6.13657 9.69324L6.35989 9.71945V9.4946H6.15989ZM6.15989 7.15261H6.35989V6.96453L6.17216 6.95299L6.15989 7.15261ZM6.08888 7.14792L6.10249 6.94839H6.10248L6.08888 7.14792ZM3.15973 7.93851L3.26913 8.10593L3.15973 7.93851ZM1.36991 10.0714L1.55408 10.1494H1.55408L1.36991 10.0714ZM1.09338 12.8173L0.89739 12.8571L1.09338 12.8173ZM2.42333 15.2507L2.56317 15.1077L2.42333 15.2507ZM4.9115 16.5513L4.94969 16.355H4.94969L4.9115 16.5513ZM7.71921 16.2809L7.64412 16.0955L7.64412 16.0955L7.71921 16.2809ZM10.7191 5.45993L10.8853 5.34866L10.5191 4.8017V5.45993H10.7191ZM12.2612 6.84609L12.3546 6.66927H12.3546L12.2612 6.84609ZM14.2918 7.34824L14.2918 7.54824L14.2927 7.54824L14.2918 7.34824ZM14.3173 4.7104V7.34141H14.7173V4.7104H14.3173ZM11.8917 3.70636C12.6017 4.379 13.5178 4.80072 14.4953 4.90918L14.5394 4.51162C13.6474 4.41265 12.8128 4.02792 12.1668 3.41598L11.8917 3.70636ZM10.5556 1.02138C10.6654 2.04273 11.1387 2.993 11.8917 3.70636L12.1668 3.41598C11.482 2.76716 11.0528 1.90431 10.9533 0.978619L10.5556 1.02138ZM8.46343 1.2H10.7544V0.8H8.46343V1.2ZM8.63949 11.9212L8.66343 1.00044L8.26343 0.999562L8.23949 11.9203L8.63949 11.9212ZM5.85955 14.5163C7.32201 14.5163 8.63949 13.3883 8.63949 11.9208H8.23949C8.23949 13.133 7.13717 14.1163 5.85955 14.1163V14.5163ZM3.96594 13.7488C4.4689 14.2407 5.15013 14.5163 5.85955 14.5163V14.1163C5.25338 14.1163 4.67291 13.8807 4.24561 13.4628L3.96594 13.7488ZM3.17934 11.8907C3.17934 12.5885 3.46282 13.2568 3.96594 13.7488L4.24561 13.4628C3.81847 13.0451 3.57934 12.4795 3.57934 11.8907H3.17934ZM3.96594 10.0325C3.46282 10.5245 3.17934 11.1929 3.17934 11.8907H3.57934C3.57934 11.3018 3.81847 10.7362 4.24561 10.3185L3.96594 10.0325ZM5.85955 9.26506C5.15013 9.26506 4.4689 9.54063 3.96594 10.0325L4.24561 10.3185C4.67291 9.9006 5.25338 9.66506 5.85955 9.66506V9.26506ZM6.10991 9.28656C6.03808 9.27695 5.95128 9.26506 5.85955 9.26506V9.66506C5.92038 9.66506 5.9811 9.67289 6.0569 9.68303L6.10991 9.28656ZM6.1832 9.29596C6.15949 9.29318 6.13562 9.28999 6.10991 9.28656L6.0569 9.68303C6.08209 9.6864 6.10914 9.69002 6.13657 9.69324L6.1832 9.29596ZM5.95989 7.15261V9.4946H6.35989V7.15261H5.95989ZM6.07526 7.34746C6.09882 7.34907 6.12314 7.35073 6.14761 7.35223L6.17216 6.95299C6.14925 6.95158 6.12626 6.95001 6.10249 6.94839L6.07526 7.34746ZM5.85955 7.33756C5.92897 7.33756 5.99825 7.34221 6.07527 7.34746L6.10248 6.94839C6.02758 6.94328 5.94482 6.93756 5.85955 6.93756V7.33756ZM3.26913 8.10593C4.03552 7.60512 4.937 7.33756 5.85955 7.33756V6.93756C4.85984 6.93756 3.88223 7.22746 3.05032 7.77108L3.26913 8.10593ZM1.55408 10.1494C1.90619 9.31801 2.5028 8.6067 3.26913 8.10593L3.05032 7.77108C2.21836 8.31474 1.56925 9.08792 1.18575 9.99338L1.55408 10.1494ZM1.28936 12.7774C1.10993 11.8952 1.20198 10.9807 1.55408 10.1494L1.18575 9.99338C0.802232 10.8989 0.701812 11.8955 0.89739 12.8571L1.28936 12.7774ZM2.56317 15.1077C1.91184 14.4707 1.46881 13.6597 1.28936 12.7774L0.89739 12.8571C1.09296 13.8187 1.57558 14.7013 2.28349 15.3936L2.56317 15.1077ZM4.94969 16.355C4.04498 16.179 3.21454 15.7447 2.56317 15.1077L2.28349 15.3936C2.99136 16.0859 3.8927 16.5569 4.87331 16.7476L4.94969 16.355ZM7.64412 16.0955C6.79215 16.4406 5.85442 16.531 4.94969 16.355L4.87331 16.7476C5.85389 16.9384 6.87035 16.8405 7.79431 16.4662L7.64412 16.0955ZM9.73497 14.4176C9.2235 15.1663 8.49606 15.7504 7.64412 16.0955L7.79431 16.4662C8.7183 16.0919 9.50877 15.4578 10.0652 14.6433L9.73497 14.4176ZM10.5191 11.8901C10.5191 12.7895 10.2464 13.6691 9.73497 14.4176L10.0652 14.6433C10.6218 13.8288 10.9191 12.8706 10.9191 11.8901H10.5191ZM10.5191 5.45993V11.8901H10.9191V5.45993H10.5191ZM12.3546 6.66927C11.7599 6.35491 11.255 5.90092 10.8853 5.34866L10.5529 5.5712C10.9599 6.17914 11.515 6.67793 12.1677 7.02291L12.3546 6.66927ZM14.2918 7.14824C13.6152 7.14833 12.9494 6.98363 12.3546 6.66927L12.1677 7.02291C12.8204 7.36789 13.5504 7.54834 14.2918 7.54824L14.2918 7.14824ZM14.5061 7.14173C14.4344 7.14575 14.3627 7.14792 14.2909 7.14824L14.2927 7.54824C14.3714 7.54789 14.45 7.54551 14.5285 7.54109L14.5061 7.14173Z" mask="url(#path-1-outside-1_602_1060)"/>
</svg>
