<svg width="16" height="16" viewBox="0 0 16 16" fill="none" xmlns="http://www.w3.org/2000/svg">
<circle cx="8" cy="8" r="7.5" fill="white" stroke="#111111"/>
<path d="M7.20952 3H8.80952L8.52381 9.95036H7.47619L7.20952 3ZM8.00952 13C7.73016 13 7.48889 12.9291 7.28571 12.7872C7.09524 12.6359 7 12.461 7 12.2624C7 12.0544 7.09524 11.8842 7.28571 11.7518C7.47619 11.6099 7.71746 11.539 8.00952 11.539C8.28889 11.539 8.52381 11.6099 8.71429 11.7518C8.90476 11.8842 9 12.0544 9 12.2624C9 12.461 8.90476 12.6359 8.71429 12.7872C8.52381 12.9291 8.28889 13 8.00952 13Z" fill="black"/>
</svg>
